<?xml version="1.0" standalone="no"?>
<!DOCTYPE svg PUBLIC "-//W3C//DTD SVG 20010904//EN"
 "http://www.w3.org/TR/2001/REC-SVG-20010904/DTD/svg10.dtd">
<svg version="1.0" xmlns="http://www.w3.org/2000/svg"
 width="400.000000pt" height="400.000000pt" viewBox="0 0 400.000000 400.000000"
 preserveAspectRatio="xMidYMid meet">

<g transform="translate(0.000000,400.000000) scale(0.100000,-0.100000)"
fill="#000000" stroke="none">
<path d="M1585 3971 c-267 -61 -493 -152 -667 -266 -229 -151 -380 -294 -547
-515 -124 -165 -149 -210 -271 -490 -37 -87 -45 -114 -75 -257 -24 -115 -25
-138 -25 -447 0 -324 0 -326 30 -463 37 -170 49 -209 112 -351 57 -130 226
-396 328 -517 100 -118 279 -273 444 -385 162 -109 366 -192 626 -255 102 -24
114 -25 457 -25 320 0 359 2 440 21 252 59 451 143 663 280 138 89 343 274
449 404 139 170 248 356 330 563 39 98 81 232 81 260 0 10 -35 12 -165 10
l-166 -3 -32 -94 c-18 -52 -36 -96 -42 -97 -13 -3 -95 101 -95 120 0 7 7 29
15 49 8 19 27 89 41 154 24 106 27 138 28 313 0 204 -14 310 -62 457 -11 32
-23 71 -27 88 -11 47 -112 243 -172 332 -66 99 -180 230 -257 296 -30 26 -58
48 -60 48 -3 0 -20 14 -37 30 -71 67 -314 196 -439 234 -198 60 -309 76 -515
76 -145 0 -189 -4 -290 -26 -164 -35 -227 -56 -390 -133 -115 -54 -160 -82
-255 -158 -128 -103 -177 -151 -272 -269 -181 -227 -284 -472 -323 -768 -26
-200 -14 -397 34 -581 12 -44 21 -86 21 -93 0 -19 -83 -122 -95 -119 -15 4
-63 174 -86 306 -30 162 -29 399 0 573 57 342 206 636 450 890 192 200 433
353 686 436 189 62 287 76 535 76 198 0 238 -3 335 -24 336 -71 615 -221 851
-455 180 -179 294 -347 383 -564 42 -103 101 -307 101 -349 0 -22 3 -23 108
-24 136 -1 216 2 221 7 10 10 -23 177 -59 294 -86 289 -163 438 -346 680 -69
91 -219 245 -334 341 -200 168 -579 340 -883 400 -83 16 -140 19 -380 18 -271
0 -287 -2 -402 -28z m1293 -843 c4 1 7 -1 8 -5 0 -5 8 -24 17 -44 9 -19 28
-82 44 -140 26 -97 28 -117 28 -299 0 -137 -4 -206 -13 -232 -8 -21 -17 -38
-20 -38 -4 0 -17 15 -29 33 -12 17 -37 50 -55 72 -31 36 -24 40 14 8 10 -9 18
-11 22 -4 8 12 -6 42 -28 61 -24 19 -20 27 17 34 l32 7 -25 19 c-14 11 -40 22
-57 26 -33 6 -42 17 -23 29 6 3 10 15 10 27 0 11 8 22 20 25 11 3 20 9 20 13
0 15 -39 21 -85 14 -25 -3 -45 -4 -45 0 0 3 11 30 24 61 30 67 67 195 60 207
-13 21 -31 3 -61 -60 -32 -68 -71 -127 -79 -119 -6 6 65 165 88 198 9 14 15
29 11 32 -3 4 2 9 11 13 9 3 16 12 16 20 0 8 5 14 10 14 6 0 10 8 10 18 0 10
6 24 12 30 10 10 15 9 26 -5 7 -10 16 -17 20 -15z m-1634 6 c3 -8 2 -12 -4 -9
-6 3 -10 10 -10 16 0 14 7 11 14 -7z m-30 -9 c-4 -8 -11 -12 -16 -9 -6 4 -5
10 3 15 19 12 19 11 13 -6z m26 -19 c0 -3 -4 -8 -10 -11 -5 -3 -10 -1 -10 4 0
6 5 11 10 11 6 0 10 -2 10 -4z m90 -161 c17 -43 29 -79 26 -82 -10 -11 -96
154 -96 186 0 6 -8 12 -17 12 -16 1 -16 2 -2 6 11 3 15 11 12 26 -6 33 42 -61
77 -148z m-188 130 c0 -5 -5 -10 -11 -11 -8 -2 -7 -1 0 3 8 4 7 8 -2 15 -11 8
-11 9 -1 6 8 -2 14 -8 14 -13z m89 -99 c5 -6 9 -18 9 -29 0 -10 14 -52 30 -94
17 -41 30 -76 30 -78 0 -2 -31 -1 -70 2 -52 4 -70 3 -70 -6 0 -7 9 -15 19 -18
11 -3 22 -15 25 -28 3 -13 8 -30 11 -38 5 -11 -5 -16 -36 -20 -23 -3 -49 -12
-57 -21 -14 -14 -13 -17 15 -27 l31 -10 -24 -36 c-37 -55 -28 -69 24 -36 17
11 4 -7 -32 -47 -32 -36 -62 -66 -67 -68 -15 -6 -33 116 -32 223 1 111 30 318
44 310 4 -3 5 4 2 14 -3 11 3 33 13 50 16 27 19 28 32 13 7 -9 11 -11 7 -4 -4
8 5 12 34 12 25 0 42 5 43 13 1 6 3 -6 5 -28 3 -22 9 -44 14 -49z m374 -401
c129 -34 205 -93 257 -202 54 -114 48 -261 -17 -433 -19 -50 -35 -98 -35 -106
0 -21 18 -17 25 6 10 32 76 70 131 76 74 9 132 -11 181 -61 23 -24 43 -39 45
-34 2 6 -11 55 -29 108 -18 54 -38 132 -43 173 -34 243 105 436 328 455 67 5
76 4 136 -26 74 -36 155 -117 201 -202 27 -50 30 -62 30 -159 l0 -105 -54 -95
c-29 -52 -64 -109 -77 -127 -13 -17 -24 -36 -24 -40 0 -5 45 -30 100 -55 96
-44 100 -48 94 -72 -5 -22 2 -34 45 -78 28 -28 51 -59 51 -67 0 -22 -31 -71
-96 -152 -30 -37 -54 -72 -54 -77 0 -5 11 -14 25 -20 33 -15 32 -31 -9 -75
-32 -35 -206 -127 -304 -161 -20 -7 -37 -17 -39 -23 -5 -13 59 -39 120 -48 65
-10 55 -26 -29 -47 -324 -80 -647 -87 -938 -21 -61 13 -151 33 -200 43 -48 10
-90 21 -93 24 -14 13 13 24 73 29 64 5 103 24 91 45 -4 5 -28 17 -54 27 -26
10 -96 42 -155 72 -80 41 -113 65 -132 92 -32 46 -32 50 0 76 l27 21 -67 90
c-36 49 -70 103 -75 119 -8 28 -5 34 39 75 59 55 72 78 58 103 -5 10 -8 20 -6
22 2 1 49 19 106 40 56 20 102 39 102 41 0 2 -31 55 -69 119 -83 138 -96 183
-83 287 19 150 124 282 271 339 57 22 72 23 146 4z m1210 -607 c-14 -40 -28
-80 -31 -89 -4 -11 4 -20 28 -29 106 -41 268 -125 268 -139 0 -8 -19 -34 -42
-58 -23 -23 -40 -45 -37 -47 2 -2 31 -15 64 -28 38 -15 61 -31 63 -42 5 -23
-32 -135 -68 -206 -64 -126 -207 -300 -268 -326 -80 -33 -124 -44 -136 -35 -7
6 -34 15 -61 21 -89 19 -95 20 -95 28 0 5 37 23 83 42 219 89 325 186 255 232
l-22 15 52 65 c55 70 102 145 102 166 0 7 -22 33 -50 59 -42 39 -50 52 -50 83
0 36 0 36 -90 75 -50 21 -93 42 -96 47 -3 5 12 34 33 66 58 84 113 200 115
241 1 26 3 21 5 -16 3 -37 -3 -72 -22 -125z m-1631 115 c9 -27 43 -93 76 -147
33 -55 57 -103 53 -106 -5 -4 -37 -17 -73 -30 -132 -48 -131 -47 -119 -74 10
-20 8 -30 -9 -54 -12 -16 -37 -40 -56 -53 -57 -38 -48 -74 51 -206 l55 -72
-27 -24 c-27 -22 -27 -24 -12 -53 9 -16 24 -39 34 -51 23 -27 180 -113 261
-143 34 -12 62 -26 62 -31 0 -11 -68 -29 -112 -29 -21 0 -43 -6 -50 -14 -11
-11 -26 -8 -93 20 -63 26 -91 45 -129 86 -112 123 -223 329 -241 449 l-7 46
41 17 c23 9 47 16 54 16 7 0 21 6 30 13 14 11 12 17 -23 57 -22 24 -40 47 -40
51 0 10 97 59 205 105 111 48 109 43 77 134 -21 57 -38 140 -29 140 3 0 13
-21 21 -47z m-599 -813 c-14 -27 -25 -56 -25 -64 0 -14 29 -26 64 -26 22 0 66
-37 66 -56 0 -7 3 -14 8 -16 4 -1 27 -30 52 -62 25 -33 55 -71 68 -84 12 -14
22 -29 22 -35 0 -5 7 -6 16 -3 8 3 13 2 10 -3 -7 -11 25 -43 128 -129 245
-205 506 -317 826 -353 112 -13 329 -7 437 11 173 29 384 108 531 198 163 100
355 274 447 404 39 56 56 67 125 85 43 11 49 34 21 83 -11 20 -18 40 -14 44
10 9 88 7 117 -4 14 -5 26 -15 26 -23 0 -21 -128 -226 -188 -300 -271 -340
-657 -565 -1078 -631 -132 -21 -407 -21 -534 -1 -449 72 -862 340 -1121 727
-91 136 -153 254 -145 274 4 10 26 14 86 14 l80 0 -25 -50z"/>
<path d="M2838 3144 c-4 -4 -3 -13 4 -21 8 -10 7 -17 -7 -27 -10 -7 -14 -15
-9 -19 12 -7 38 13 47 35 4 12 2 15 -8 12 -7 -3 -15 2 -17 11 -1 9 -6 13 -10
9z"/>
<path d="M1201 3014 c0 -11 3 -14 6 -6 3 7 2 16 -1 19 -3 4 -6 -2 -5 -13z"/>
<path d="M1540 2483 c-40 -5 -66 -23 -32 -23 30 0 104 -26 190 -67 41 -19 76
-32 79 -29 9 9 -24 52 -59 80 -30 22 -106 48 -133 44 -5 -1 -26 -3 -45 -5z"/>
<path d="M2314 2434 c-42 -28 -73 -62 -74 -80 0 -7 32 2 76 21 43 19 106 41
141 51 78 21 66 34 -33 34 -60 0 -77 -4 -110 -26z"/>
<path d="M1462 2324 c-55 -27 -95 -72 -134 -149 -11 -22 -25 -43 -30 -46 -8
-5 30 -78 42 -79 3 0 6 17 8 38 4 66 35 135 82 184 36 37 54 48 91 53 57 8
109 -12 163 -63 l39 -37 -19 34 c-26 47 -85 83 -142 88 -37 3 -58 -1 -100 -23z"/>
<path d="M2370 2298 c-19 -13 -36 -29 -38 -37 -3 -10 5 -7 23 7 122 96 283 -6
302 -192 3 -31 9 -56 12 -56 3 0 16 18 29 40 12 22 18 40 12 40 -6 0 -21 24
-34 54 -28 64 -84 128 -130 150 -51 24 -136 21 -176 -6z"/>
<path d="M1525 2261 c-3 -5 -1 -12 5 -16 18 -11 11 -71 -10 -90 -10 -9 -19
-20 -18 -24 0 -3 0 -12 -1 -19 -2 -20 -45 -10 -49 11 -2 11 -12 27 -22 37 -16
16 -19 16 -24 3 -22 -57 9 -138 66 -173 49 -30 158 -25 158 7 0 8 4 12 9 8 14
-8 49 33 62 72 15 47 4 97 -32 138 -38 43 -128 71 -144 46z"/>
<path d="M2390 2228 c-57 -29 -94 -94 -85 -148 8 -44 32 -81 56 -87 10 -3 19
-11 19 -18 0 -27 103 -34 150 -10 57 30 91 101 76 161 -7 25 -8 26 -26 9 -11
-10 -20 -24 -20 -30 0 -7 -7 -18 -15 -25 -12 -10 -18 -10 -30 0 -9 7 -14 19
-11 26 2 7 -4 20 -15 30 -23 21 -25 67 -4 84 13 11 13 15 3 21 -22 14 -52 10
-98 -13z"/>
<path d="M1390 1981 c0 -15 48 -49 87 -62 19 -6 56 -9 82 -7 45 5 149 44 139
53 -2 3 -24 -4 -47 -16 -86 -41 -160 -37 -215 11 -35 31 -46 36 -46 21z"/>
<path d="M2300 1963 c0 -10 52 -43 95 -60 72 -28 178 -5 211 45 l18 27 -33
-27 c-70 -59 -180 -60 -256 -2 -19 14 -35 22 -35 17z"/>
<path d="M1903 1825 c-32 -32 -35 -40 -29 -73 l6 -38 -60 4 c-110 8 -142 -3
-268 -89 -109 -74 -121 -79 -169 -79 -44 0 -58 5 -87 31 -31 27 -35 36 -38 87
l-3 56 -20 -29 c-27 -42 -33 -150 -10 -199 19 -40 110 -128 159 -153 94 -49
250 -57 356 -20 80 29 139 65 206 129 l52 49 23 -30 c35 -44 136 -122 199
-153 69 -34 208 -48 291 -28 198 46 303 197 250 358 -8 23 -18 42 -23 42 -4 0
-8 -25 -8 -55 0 -46 -4 -60 -24 -80 -48 -48 -135 -45 -203 8 -23 17 -66 51
-97 75 -66 52 -126 72 -217 72 l-67 0 5 40 c5 35 2 43 -30 75 -33 33 -39 35
-97 35 -58 0 -64 -2 -97 -35z m-2 -146 c20 -10 47 -29 60 -43 28 -29 42 -32
59 -11 6 8 33 26 58 40 40 22 60 27 125 27 93 0 152 -25 232 -97 69 -63 145
-99 193 -92 65 11 71 13 92 32 17 15 20 16 20 2 0 -21 -102 -107 -127 -107
-10 0 -28 -7 -39 -15 -10 -8 -38 -15 -61 -15 -35 0 -41 -3 -36 -16 5 -14 0
-15 -38 -9 -24 4 -60 13 -81 21 -23 8 -38 9 -40 3 -6 -17 -53 0 -105 37 -29
21 -50 29 -54 23 -4 -7 -24 6 -49 30 -24 23 -44 41 -46 41 -1 0 0 -9 3 -20 7
-27 -6 -25 -39 7 l-28 27 -30 -22 c-37 -28 -50 -28 -42 1 4 18 -3 14 -38 -20
-43 -44 -60 -52 -60 -31 0 7 -6 5 -17 -4 -19 -16 -86 -52 -129 -68 -23 -9 -25
-8 -19 12 6 18 4 20 -11 13 -59 -25 -93 -34 -122 -35 -29 0 -32 2 -22 19 9 18
8 19 -22 10 -43 -12 -98 -12 -98 1 0 6 5 10 10 10 24 0 7 18 -22 24 -18 3 -44
18 -59 32 -37 36 -21 52 43 46 67 -6 87 1 176 67 88 65 131 90 177 102 44 11
144 -1 186 -22z m112 -35 c-4 -13 -26 -11 -30 3 -2 6 4 10 14 9 10 -2 17 -7
16 -12z m-776 -16 c-3 -8 -6 -5 -6 6 -1 11 2 17 5 13 3 -3 4 -12 1 -19z m47
-80 c7 -5 5 -8 -6 -8 -20 0 -23 5 -32 45 l-6 30 16 -30 c9 -16 22 -33 28 -37z"/>
<path d="M1722 1669 c2 -7 10 -15 17 -17 8 -3 12 1 9 9 -2 7 -10 15 -17 17 -8
3 -12 -1 -9 -9z"/>
<path d="M1867 1673 c-4 -3 -7 -11 -7 -17 0 -6 5 -5 12 2 6 6 9 14 7 17 -3 3
-9 2 -12 -2z"/>
<path d="M2250 1655 c0 -8 5 -15 10 -15 6 0 10 7 10 15 0 8 -4 15 -10 15 -5 0
-10 -7 -10 -15z"/>
<path d="M2118 1653 c7 -3 16 -2 19 1 4 3 -2 6 -13 5 -11 0 -14 -3 -6 -6z"/>
<path d="M1850 1530 c0 -5 5 -10 11 -10 5 0 7 5 4 10 -3 6 -8 10 -11 10 -2 0
-4 -4 -4 -10z"/>
<path d="M1465 1470 c3 -5 14 -10 23 -10 15 0 15 2 2 10 -20 13 -33 13 -25 0z"/>
<path d="M1570 1470 c0 -5 4 -10 9 -10 6 0 13 5 16 10 3 6 -1 10 -9 10 -9 0
-16 -4 -16 -10z"/>
<path d="M2395 1460 c-3 -5 1 -10 10 -10 9 0 13 5 10 10 -3 6 -8 10 -10 10 -2
0 -7 -4 -10 -10z"/>
</g>
</svg>
